<svg xmlns="http://www.w3.org/2000/svg" width="50" height="32"><path d="M0 0h50v32H0V0z" opacity=".2"/><path fill="#fff" d="M16.75 7.031c0-.069.056-.125.125-.125h16.25c.069 0 .125.056.125.125v17.906c0 .069-.056.125-.125.125h-16.25c-.069 0-.125-.056-.125-.125V7.031z"/><path fill="#fff" d="M33 7.625c0 .259-.21.469-.469.469s-.469-.21-.469-.469.21-.469.469-.469.469.21.469.469z"/><path d="m32.719 7.472-.035-.035-.137.137-.137-.137-.035.035.137.137-.137.137.035.035.137-.137.137.137.035-.035-.137-.137.137-.137z"/></svg>